<?xml version="1.0" encoding="UTF-8"?>
<svg width="39px" height="39px" viewBox="0 0 39 39" version="1.1" xmlns="http://www.w3.org/2000/svg" xmlns:xlink="http://www.w3.org/1999/xlink">
    <title>excel-logo</title>
    <g id="excel-logo" stroke="none" stroke-width="1" fill="none" fill-rule="evenodd">
        <g id="xlsx-logo" transform="translate(9, 9)" fill-rule="nonzero">
            <path d="M2.2,21 L19.8,21 C21.01,21 22,20.055 22,18.9 L22,2.1 C22,0.945 21.01,0 19.8,0 L2.2,0 C0.99,0 0,0.945 0,2.1 L0,18.9 C0,20.055 0.99,21 2.2,21 Z" id="Path" fill="#13874A"></path>
            <path d="M5,17 L9.34862384,10.526971 L5.3853211,4.05394191 L8.57798168,4.05394191 L10.7247706,8.15352695 C10.9449541,8.53112034 11.0550459,8.85477176 11.1100917,9.01659754 L11.1651376,9.01659754 C11.3302752,8.69294605 11.440367,8.42323653 11.6055046,8.09958504 L13.9174312,4 L16.8348624,4 L12.7614679,10.4190871 L17,17 L13.8623853,17 L11.3302752,12.4688797 C11.2201835,12.307054 11.1100917,12.0912863 11.0550459,11.8755187 L11,11.8755187 C10.9449541,12.0373444 10.8348624,12.1991701 10.7247706,12.4688797 L8.19266054,17 L5,17 Z" id="Path" fill="#FFFFFF"></path>
        </g>
    </g>
</svg>