<?xml version="1.0" encoding="UTF-8"?>
<svg width="625px" height="168px" viewBox="0 0 625 168" version="1.1" xmlns="http://www.w3.org/2000/svg" xmlns:xlink="http://www.w3.org/1999/xlink">
    <title>sharelist-logo</title>
    <defs>
        <path d="M0,0 L625,0 L625,168 L0,168 L0,0 Z" id="path-1"></path>
    </defs>
    <g id="sharelist-logo" stroke="none" fill="none" xlink:href="#path-1" fill-rule="evenodd">
        <g id="sharelist" stroke-width="1" transform="translate(167, 12)" fill="#000000">
            <path d="M38.19,73.872 C36.974,72.276 35.302,70.889 33.174,69.711 C31.046,68.533 28.728,67.944 26.22,67.944 C24.016,67.944 22.002,68.4 20.178,69.312 C18.354,70.224 17.442,71.744 17.442,73.872 C17.442,76 18.449,77.501 20.463,78.375 C22.477,79.249 25.422,80.142 29.298,81.054 C31.35,81.51 33.421,82.118 35.511,82.878 C37.601,83.638 39.501,84.645 41.211,85.899 C42.921,87.153 44.308,88.711 45.372,90.573 C46.436,92.435 46.968,94.696 46.968,97.356 C46.968,100.7 46.341,103.531 45.087,105.849 C43.833,108.167 42.161,110.048 40.071,111.492 C37.981,112.936 35.549,113.981 32.775,114.627 C30.001,115.273 27.132,115.596 24.168,115.596 C19.912,115.596 15.77,114.817 11.742,113.259 C7.714,111.701 4.37,109.478 1.71,106.59 L10.716,98.154 C12.236,100.13 14.212,101.764 16.644,103.056 C19.076,104.348 21.774,104.994 24.738,104.994 C25.726,104.994 26.733,104.88 27.759,104.652 C28.785,104.424 29.735,104.063 30.609,103.569 C31.483,103.075 32.186,102.41 32.718,101.574 C33.25,100.738 33.516,99.712 33.516,98.496 C33.516,96.216 32.471,94.582 30.381,93.594 C28.291,92.606 25.156,91.618 20.976,90.63 C18.924,90.174 16.929,89.585 14.991,88.863 C13.053,88.141 11.324,87.191 9.804,86.013 C8.284,84.835 7.068,83.372 6.156,81.624 C5.244,79.876 4.788,77.71 4.788,75.126 C4.788,72.086 5.415,69.464 6.669,67.26 C7.923,65.056 9.576,63.251 11.628,61.845 C13.68,60.439 15.998,59.394 18.582,58.71 C21.166,58.026 23.826,57.684 26.562,57.684 C30.514,57.684 34.371,58.368 38.133,59.736 C41.895,61.104 44.878,63.194 47.082,66.006 L38.19,73.872 Z" id="Path" fill-rule="nonzero"></path>
            <path d="M89.262,57.684 C92.834,57.684 95.893,58.311 98.439,59.565 C100.985,60.819 103.075,62.472 104.709,64.524 C106.343,66.576 107.54,68.932 108.3,71.592 C109.06,74.252 109.44,76.988 109.44,79.8 L109.44,114 L95.76,114 L95.76,83.904 C95.76,82.308 95.646,80.655 95.418,78.945 C95.19,77.235 94.715,75.677 93.993,74.271 C93.271,72.865 92.245,71.706 90.915,70.794 C89.585,69.882 87.818,69.426 85.614,69.426 C83.41,69.426 81.51,69.844 79.914,70.68 C78.318,71.516 76.988,72.637 75.924,74.043 C74.86,75.449 74.062,77.026 73.53,78.774 C72.998,80.522 72.732,82.308 72.732,84.132 L72.732,114 L59.052,114 L59.052,27.816 L72.732,27.816 L72.732,66.918 L72.96,66.918 C73.492,65.778 74.271,64.657 75.297,63.555 C76.323,62.453 77.52,61.465 78.888,60.591 C80.256,59.717 81.814,59.014 83.562,58.482 C85.31,57.95 87.21,57.684 89.262,57.684 Z" id="Path" fill-rule="nonzero"></path>
            <path d="M159.372,107.046 L159.03,107.046 C157.662,109.478 155.458,111.473 152.418,113.031 C149.378,114.589 145.92,115.368 142.044,115.368 C139.84,115.368 137.541,115.083 135.147,114.513 C132.753,113.943 130.549,112.993 128.535,111.663 C126.521,110.333 124.849,108.585 123.519,106.419 C122.189,104.253 121.524,101.574 121.524,98.382 C121.524,94.278 122.683,91.01 125.001,88.578 C127.319,86.146 130.302,84.284 133.95,82.992 C137.598,81.7 141.645,80.845 146.091,80.427 C150.537,80.009 154.888,79.8 159.144,79.8 L159.144,78.432 C159.144,75.012 157.909,72.485 155.439,70.851 C152.969,69.217 150.024,68.4 146.604,68.4 C143.716,68.4 140.942,69.008 138.282,70.224 C135.622,71.44 133.418,72.922 131.67,74.67 L124.602,66.348 C127.718,63.46 131.309,61.294 135.375,59.85 C139.441,58.406 143.564,57.684 147.744,57.684 C152.608,57.684 156.617,58.368 159.771,59.736 C162.925,61.104 165.414,62.89 167.238,65.094 C169.062,67.298 170.335,69.768 171.057,72.504 C171.779,75.24 172.14,77.976 172.14,80.712 L172.14,114 L159.372,114 L159.372,107.046 Z M159.144,89.034 L156.066,89.034 C153.862,89.034 151.544,89.129 149.112,89.319 C146.68,89.509 144.438,89.927 142.386,90.573 C140.334,91.219 138.624,92.131 137.256,93.309 C135.888,94.487 135.204,96.102 135.204,98.154 C135.204,99.446 135.489,100.529 136.059,101.403 C136.629,102.277 137.37,102.98 138.282,103.512 C139.194,104.044 140.22,104.424 141.36,104.652 C142.5,104.88 143.64,104.994 144.78,104.994 C149.492,104.994 153.064,103.74 155.496,101.232 C157.928,98.724 159.144,95.304 159.144,90.972 L159.144,89.034 Z" id="Shape" fill-rule="nonzero"></path>
            <path d="M188.1,59.28 L201.21,59.28 L201.21,68.4 L201.438,68.4 C202.958,65.208 205.086,62.624 207.822,60.648 C210.558,58.672 213.75,57.684 217.398,57.684 C217.93,57.684 218.5,57.703 219.108,57.741 C219.716,57.779 220.248,57.874 220.704,58.026 L220.704,70.566 C219.792,70.338 219.013,70.186 218.367,70.11 C217.721,70.034 217.094,69.996 216.486,69.996 C213.37,69.996 210.862,70.566 208.962,71.706 C207.062,72.846 205.58,74.214 204.516,75.81 C203.452,77.406 202.73,79.04 202.35,80.712 C201.97,82.384 201.78,83.714 201.78,84.702 L201.78,114 L188.1,114 L188.1,59.28 Z" id="Path" fill-rule="nonzero"></path>
            <path d="M266.076,81.168 C266.076,79.42 265.829,77.748 265.335,76.152 C264.841,74.556 264.062,73.15 262.998,71.934 C261.934,70.718 260.585,69.749 258.951,69.027 C257.317,68.305 255.398,67.944 253.194,67.944 C249.09,67.944 245.613,69.179 242.763,71.649 C239.913,74.119 238.336,77.292 238.032,81.168 L266.076,81.168 Z M279.756,87.324 C279.756,87.932 279.756,88.54 279.756,89.148 C279.756,89.756 279.718,90.364 279.642,90.972 L238.032,90.972 C238.184,92.948 238.697,94.753 239.571,96.387 C240.445,98.021 241.604,99.427 243.048,100.605 C244.492,101.783 246.126,102.714 247.95,103.398 C249.774,104.082 251.674,104.424 253.65,104.424 C257.07,104.424 259.958,103.797 262.314,102.543 C264.67,101.289 266.608,99.56 268.128,97.356 L277.248,104.652 C271.852,111.948 264.024,115.596 253.764,115.596 C249.508,115.596 245.594,114.931 242.022,113.601 C238.45,112.271 235.353,110.39 232.731,107.958 C230.109,105.526 228.057,102.543 226.575,99.009 C225.093,95.475 224.352,91.466 224.352,86.982 C224.352,82.574 225.093,78.565 226.575,74.955 C228.057,71.345 230.09,68.267 232.674,65.721 C235.258,63.175 238.317,61.199 241.851,59.793 C245.385,58.387 249.204,57.684 253.308,57.684 C257.108,57.684 260.623,58.311 263.853,59.565 C267.083,60.819 269.876,62.681 272.232,65.151 C274.588,67.621 276.431,70.699 277.761,74.385 C279.091,78.071 279.756,82.384 279.756,87.324 Z" id="Shape" fill-rule="nonzero"></path>
            <polygon id="Path" fill-rule="nonzero" points="293.208 27.816 306.888 27.816 306.888 114 293.208 114"></polygon>
            <path d="M323.76,59.28 L337.44,59.28 L337.44,114 L323.76,114 L323.76,59.28 Z M321.822,40.698 C321.822,38.494 322.639,36.575 324.273,34.941 C325.907,33.307 327.978,32.49 330.486,32.49 C332.994,32.49 335.103,33.269 336.813,34.827 C338.523,36.385 339.378,38.342 339.378,40.698 C339.378,43.054 338.523,45.011 336.813,46.569 C335.103,48.127 332.994,48.906 330.486,48.906 C327.978,48.906 325.907,48.089 324.273,46.455 C322.639,44.821 321.822,42.902 321.822,40.698 Z" id="Shape" fill-rule="nonzero"></path>
            <path d="M384.066,73.872 C382.85,72.276 381.178,70.889 379.05,69.711 C376.922,68.533 374.604,67.944 372.096,67.944 C369.892,67.944 367.878,68.4 366.054,69.312 C364.23,70.224 363.318,71.744 363.318,73.872 C363.318,76 364.325,77.501 366.339,78.375 C368.353,79.249 371.298,80.142 375.174,81.054 C377.226,81.51 379.297,82.118 381.387,82.878 C383.477,83.638 385.377,84.645 387.087,85.899 C388.797,87.153 390.184,88.711 391.248,90.573 C392.312,92.435 392.844,94.696 392.844,97.356 C392.844,100.7 392.217,103.531 390.963,105.849 C389.709,108.167 388.037,110.048 385.947,111.492 C383.857,112.936 381.425,113.981 378.651,114.627 C375.877,115.273 373.008,115.596 370.044,115.596 C365.788,115.596 361.646,114.817 357.618,113.259 C353.59,111.701 350.246,109.478 347.586,106.59 L356.592,98.154 C358.112,100.13 360.088,101.764 362.52,103.056 C364.952,104.348 367.65,104.994 370.614,104.994 C371.602,104.994 372.609,104.88 373.635,104.652 C374.661,104.424 375.611,104.063 376.485,103.569 C377.359,103.075 378.062,102.41 378.594,101.574 C379.126,100.738 379.392,99.712 379.392,98.496 C379.392,96.216 378.347,94.582 376.257,93.594 C374.167,92.606 371.032,91.618 366.852,90.63 C364.8,90.174 362.805,89.585 360.867,88.863 C358.929,88.141 357.2,87.191 355.68,86.013 C354.16,84.835 352.944,83.372 352.032,81.624 C351.12,79.876 350.664,77.71 350.664,75.126 C350.664,72.086 351.291,69.464 352.545,67.26 C353.799,65.056 355.452,63.251 357.504,61.845 C359.556,60.439 361.874,59.394 364.458,58.71 C367.042,58.026 369.702,57.684 372.438,57.684 C376.39,57.684 380.247,58.368 384.009,59.736 C387.771,61.104 390.754,63.194 392.958,66.006 L384.066,73.872 Z" id="Path" fill-rule="nonzero"></path>
            <path d="M396.834,70.224 L396.834,59.28 L406.41,59.28 L406.41,43.434 L419.862,43.434 L419.862,59.28 L433.542,59.28 L433.542,70.224 L419.862,70.224 L419.862,95.646 C419.862,98.078 420.299,100.092 421.173,101.688 C422.047,103.284 424.004,104.082 427.044,104.082 C427.956,104.082 428.944,103.987 430.008,103.797 C431.072,103.607 432.022,103.322 432.858,102.942 L433.314,113.658 C432.098,114.114 430.654,114.475 428.982,114.741 C427.31,115.007 425.714,115.14 424.194,115.14 C420.546,115.14 417.582,114.627 415.302,113.601 C413.022,112.575 411.217,111.169 409.887,109.383 C408.557,107.597 407.645,105.545 407.151,103.227 C406.657,100.909 406.41,98.42 406.41,95.76 L406.41,70.224 L396.834,70.224 Z" id="Path" fill-rule="nonzero"></path>
        </g>
        <rect id="Rectangle-Copy-4" fill="#FFFFFF" x="34" y="41" width="78" height="74" rx="13"></rect>
        <g id="Group" stroke-width="1" transform="translate(17, 21)" fill="#4F2D7F">
            <path d="M49.5,47 L142.5,47 C148.29899,47 153,51.7010101 153,57.5 C153,63.2989899 148.29899,68 142.5,68 L49.5,68 C43.7010101,68 39,63.2989899 39,57.5 C39,51.7010101 43.7010101,47 49.5,47 Z" id="Rectangle-Copy" transform="translate(96, 57.5) rotate(-270) translate(-96, -57.5)"></path>
            <rect id="Rectangle" x="1" y="0" width="105" height="23" rx="11.5"></rect>
            <path d="M-29.5,41 L52.5,41 C58.8512746,41 64,46.1487254 64,52.5 C64,58.8512746 58.8512746,64 52.5,64 L-29.5,64 C-35.8512746,64 -41,58.8512746 -41,52.5 C-41,46.1487254 -35.8512746,41 -29.5,41 Z" id="Rectangle-Copy-3" transform="translate(11.5, 52.5) rotate(-90) translate(-11.5, -52.5)"></path>
            <rect id="Rectangle-Copy-2" transform="translate(53.5, 94.5) rotate(-180) translate(-53.5, -94.5)" x="1" y="83" width="105" height="23" rx="11.5"></rect>
        </g>
        <rect id="Rectangle" stroke="#4F2D7F" stroke-width="8" fill="#FFFFFF" x="31.1836735" y="35.0821918" width="78" height="78" rx="10"></rect>
        <path d="M85.1423679,102.938286 L143.306612,102.938286 C151.86139,102.938286 158.796408,109.873304 158.796408,118.428082 C158.796408,126.98286 151.86139,133.917878 143.306612,133.917878 L85.1423679,133.917878 C76.5875898,133.917878 69.652572,126.98286 69.652572,118.428082 C69.652572,109.873304 76.5875898,102.938286 85.1423679,102.938286 Z" id="Rectangle-Copy-13" fill="#FFFFFF" transform="translate(114.2245, 118.4281) rotate(-90) translate(-114.2245, -118.4281)"></path>
        <path d="M83.3163265,103.760274 L143.5,103.760274 C151.508129,103.760274 158,110.252145 158,118.260274 C158,126.268403 151.508129,132.760274 143.5,132.760274 L83.3163265,132.760274 C75.3081977,132.760274 68.8163265,126.268403 68.8163265,118.260274 C68.8163265,110.252145 75.3081977,103.760274 83.3163265,103.760274 Z" id="Rectangle-Copy-14" fill="#FFFFFF"></path>
        <rect id="Rectangle-Copy-12" fill="#4F2D7F" transform="translate(113.4082, 118.0342) rotate(-180) translate(-113.4082, -118.0342)" x="75.3877551" y="109.034247" width="76.0408163" height="18" rx="9"></rect>
        <path d="M85.5475958,108.335616 L142.554445,108.335616 C147.80115,108.335616 152.054445,112.588911 152.054445,117.835616 C152.054445,123.082322 147.80115,127.335616 142.554445,127.335616 L85.5475958,127.335616 C80.3008906,127.335616 76.0475958,123.082322 76.0475958,117.835616 C76.0475958,112.588911 80.3008906,108.335616 85.5475958,108.335616 Z" id="Rectangle-Copy-11" fill="#4F2D7F" transform="translate(114.051, 117.8356) rotate(-90) translate(-114.051, -117.8356)"></path>
    </g>
</svg>