<?xml version="1.0" encoding="UTF-8"?>
<svg width="558px" height="194px" viewBox="0 0 558 194" version="1.1" xmlns="http://www.w3.org/2000/svg" xmlns:xlink="http://www.w3.org/1999/xlink">
    <title>logo-light@2x</title>
    <defs>
        <path d="M0,0 L558,0 L558,194 L0,194 L0,0 Z" id="path-1"></path>
    </defs>
    <g id="logo-light" stroke="none" fill="none" xlink:href="#path-1" fill-rule="evenodd">
        <g id="List" stroke-width="1" transform="translate(184, -7)" fill="#000000">
            <polygon id="Path" fill-rule="nonzero" points="28.12 138.624 76.152 138.624 76.152 152 13.072 152 13.072 44.384 28.12 44.384"></polygon>
            <path d="M104.424,152 L90.136,152 L90.136,79.952 L104.424,79.952 L104.424,152 Z M106.856,53.96 C106.856,56.5946667 105.918667,58.7733333 104.044,60.496 C102.169333,62.2186667 99.9146667,63.08 97.28,63.08 C94.6453333,63.08 92.416,62.1933333 90.592,60.42 C88.768,58.6466667 87.856,56.4933333 87.856,53.96 C87.856,51.3253333 88.768,49.1213333 90.592,47.348 C92.416,45.5746667 94.6453333,44.688 97.28,44.688 C99.9146667,44.688 102.169333,45.5746667 104.044,47.348 C105.918667,49.1213333 106.856,51.3253333 106.856,53.96 Z" id="Shape" fill-rule="nonzero"></path>
            <path d="M168.264,98.192 C166.642667,95.5573333 164.362667,93.404 161.424,91.732 C158.485333,90.06 155.192,89.224 151.544,89.224 C149.922667,89.224 148.301333,89.4013333 146.68,89.756 C145.058667,90.1106667 143.614667,90.668 142.348,91.428 C141.081333,92.188 140.068,93.1506667 139.308,94.316 C138.548,95.4813333 138.168,96.9253333 138.168,98.648 C138.168,101.688 139.536,103.942667 142.272,105.412 C145.008,106.881333 149.112,108.224 154.584,109.44 C158.029333,110.250667 161.221333,111.213333 164.16,112.328 C167.098667,113.442667 169.657333,114.836 171.836,116.508 C174.014667,118.18 175.712,120.181333 176.928,122.512 C178.144,124.842667 178.752,127.578667 178.752,130.72 C178.752,134.976 177.941333,138.573333 176.32,141.512 C174.698667,144.450667 172.545333,146.857333 169.86,148.732 C167.174667,150.606667 164.109333,151.949333 160.664,152.76 C157.218667,153.570667 153.672,153.976 150.024,153.976 C144.552,153.976 139.206667,152.912 133.988,150.784 C128.769333,148.656 124.437333,145.413333 120.992,141.056 L131.176,132.392 C133.101333,135.229333 135.761333,137.610667 139.156,139.536 C142.550667,141.461333 146.274667,142.424 150.328,142.424 C152.152,142.424 153.9,142.246667 155.572,141.892 C157.244,141.537333 158.764,140.954667 160.132,140.144 C161.5,139.333333 162.589333,138.269333 163.4,136.952 C164.210667,135.634667 164.616,133.962667 164.616,131.936 C164.616,128.592 163.02,126.109333 159.828,124.488 C156.636,122.866667 151.949333,121.346667 145.768,119.928 C143.336,119.32 140.878667,118.585333 138.396,117.724 C135.913333,116.862667 133.658667,115.672 131.632,114.152 C129.605333,112.632 127.958667,110.732 126.692,108.452 C125.425333,106.172 124.792,103.36 124.792,100.016 C124.792,96.1653333 125.577333,92.8466667 127.148,90.06 C128.718667,87.2733333 130.770667,84.9933333 133.304,83.22 C135.837333,81.4466667 138.725333,80.1293333 141.968,79.268 C145.210667,78.4066667 148.554667,77.976 152,77.976 C157.168,77.976 162.158667,78.9893333 166.972,81.016 C171.785333,83.0426667 175.509333,85.9813333 178.144,89.832 L168.264,98.192 Z" id="Path" fill-rule="nonzero"></path>
            <path d="M232.104,91.656 L212.952,91.656 L212.952,129.2 C212.952,133.557333 213.762667,136.673333 215.384,138.548 C217.005333,140.422667 219.589333,141.36 223.136,141.36 C224.453333,141.36 225.872,141.208 227.392,140.904 C228.912,140.6 230.28,140.144 231.496,139.536 L231.952,151.24 C230.229333,151.848 228.329333,152.329333 226.252,152.684 C224.174667,153.038667 222.021333,153.216 219.792,153.216 C213.002667,153.216 207.809333,151.341333 204.212,147.592 C200.614667,143.842667 198.816,138.218667 198.816,130.72 L198.816,91.656 L184.984,91.656 L184.984,79.952 L198.816,79.952 L198.816,59.28 L212.952,59.28 L212.952,79.952 L232.104,79.952 L232.104,91.656 Z" id="Path" fill-rule="nonzero"></path>
        </g>
        <g id="+" stroke-width="1" transform="translate(438, -7)" fill="#9334E9">
            <polygon id="Path" fill-rule="nonzero" points="56.848 99.712 90.592 99.712 90.592 112.176 56.848 112.176 56.848 145.92 44.384 145.92 44.384 112.176 10.64 112.176 10.64 99.712 44.384 99.712 44.384 65.968 56.848 65.968"></polygon>
        </g>
        <path d="M113.013902,140.365817 C116.968378,143.576162 122.009521,145.5 127.5,145.5 C132.544284,145.5 137.209297,143.876146 141.000804,141.122671 L141,142.007255 C141,149.735235 134.735235,156 127.007255,156 C119.279275,156 113.01451,149.735235 113.01451,142.007255 Z M127.007255,34.0590717 C134.735235,34.0590717 141,40.323837 141,48.0518167 L141.000804,85.8773288 C137.209297,83.1238542 132.544284,81.5 127.5,81.5 C122.009521,81.5 116.968378,83.4238378 113.013902,86.634183 L113.01451,48.0518167 C113.01451,40.323837 119.279275,34.0590717 127.007255,34.0590717 Z" id="Combined-Shape" fill="#9334E9"></path>
        <rect id="Rectangle" fill="#9334E9" x="23" y="32" width="117.93885" height="27.9866676" rx="13.9933338"></rect>
        <path d="M-4.60616557,76.038679 L78.4735732,76.038679 C86.1689454,76.038679 92.4072771,82.2770107 92.4072771,89.9723828 C92.4072771,97.667755 86.1689454,103.906087 78.4735732,103.906087 L-4.60616557,103.906087 C-12.3015377,103.906087 -18.5398694,97.667755 -18.5398694,89.9723828 C-18.5398694,82.2770107 -12.3015377,76.038679 -4.60616557,76.038679 Z" id="Rectangle-Copy-3" fill="#9334E9" transform="translate(36.9337, 89.9724) rotate(-90) translate(-36.9337, -89.9724)"></path>
        <path d="M77.7825569,119.958049 C74.783872,123.842681 73,128.713018 73,134 C73,139.242977 74.7543001,144.076216 77.7079326,147.944748 L37.0102027,147.944766 C29.2818978,147.944766 23.0168689,141.679737 23.0168689,133.951432 C23.0168689,126.223127 29.2818978,119.958098 37.0102027,119.958098 Z" id="Combined-Shape" fill="#9334E9"></path>
        <rect id="Rectangle-Copy-12" fill="#9334E9" transform="translate(124.5, 133.96) rotate(-180) translate(-124.5, -133.96)" x="84" y="119.96" width="81" height="28" rx="14"></rect>
        <path d="M100.51,119 L153.51,119 C161.241986,119 167.51,125.268014 167.51,133 C167.51,140.731986 161.241986,147 153.51,147 L100.51,147 C92.7780135,147 86.51,140.731986 86.51,133 C86.51,125.268014 92.7780135,119 100.51,119 Z" id="Rectangle-Copy-11" fill="#9334E9" transform="translate(127.01, 133) rotate(-90) translate(-127.01, -133)"></path>
    </g>
</svg>