<?xml version="1.0" encoding="UTF-8"?>
<svg width="965px" height="194px" viewBox="0 0 965 194" version="1.1" xmlns="http://www.w3.org/2000/svg" xmlns:xlink="http://www.w3.org/1999/xlink">
    <title>Frame Copy 11@2x</title>
    <defs>
        <path d="M0,0 L965,0 L965,194 L0,194 L0,0 Z" id="path-1"></path>
    </defs>
    <g id="Frame-Copy-11" stroke="none" fill="none" xlink:href="#path-1" fill-rule="evenodd">
        <g id="Spread" stroke-width="1" transform="translate(184, -7)" fill="#FFFFFF">
            <path d="M66.576,64.296 C64.448,61.3573333 61.56,58.9506667 57.912,57.076 C54.264,55.2013333 50.16,54.264 45.6,54.264 C43.168,54.264 40.7106667,54.5933333 38.228,55.252 C35.7453333,55.9106667 33.4906667,56.9746667 31.464,58.444 C29.4373333,59.9133333 27.7906667,61.7373333 26.524,63.916 C25.2573333,66.0946667 24.624,68.704 24.624,71.744 C24.624,74.6826667 25.2066667,77.14 26.372,79.116 C27.5373333,81.092 29.108,82.764 31.084,84.132 C33.06,85.5 35.3906667,86.6653333 38.076,87.628 C40.7613333,88.5906667 43.624,89.5786667 46.664,90.592 C50.312,91.7066667 54.0106667,92.9733333 57.76,94.392 C61.5093333,95.8106667 64.904,97.6853333 67.944,100.016 C70.984,102.346667 73.4666667,105.26 75.392,108.756 C77.3173333,112.252 78.28,116.685333 78.28,122.056 C78.28,127.629333 77.2413333,132.468 75.164,136.572 C73.0866667,140.676 70.3253333,144.070667 66.88,146.756 C63.4346667,149.441333 59.4573333,151.442667 54.948,152.76 C50.4386667,154.077333 45.8026667,154.736 41.04,154.736 C34.2506667,154.736 27.6893333,153.418667 21.356,150.784 C15.0226667,148.149333 9.77866667,144.248 5.624,139.08 L17.328,129.2 C19.8613333,132.949333 23.256,135.989333 27.512,138.32 C31.768,140.650667 36.3786667,141.816 41.344,141.816 C43.8773333,141.816 46.4106667,141.461333 48.944,140.752 C51.4773333,140.042667 53.7826667,138.928 55.86,137.408 C57.9373333,135.888 59.6346667,133.988 60.952,131.708 C62.2693333,129.428 62.928,126.666667 62.928,123.424 C62.928,120.181333 62.244,117.470667 60.876,115.292 C59.508,113.113333 57.6586667,111.264 55.328,109.744 C52.9973333,108.224 50.2866667,106.932 47.196,105.868 C44.1053333,104.804 40.8373333,103.714667 37.392,102.6 C33.9466667,101.586667 30.552,100.345333 27.208,98.876 C23.864,97.4066667 20.8746667,95.532 18.24,93.252 C15.6053333,90.972 13.4773333,88.16 11.856,84.816 C10.2346667,81.472 9.424,77.3173333 9.424,72.352 C9.424,66.9813333 10.5133333,62.3706667 12.692,58.52 C14.8706667,54.6693333 17.708,51.4773333 21.204,48.944 C24.7,46.4106667 28.652,44.5613333 33.06,43.396 C37.468,42.2306667 41.9013333,41.648 46.36,41.648 C52.6426667,41.648 58.52,42.7626667 63.992,44.992 C69.464,47.2213333 73.872,50.2106667 77.216,53.96 L66.576,64.296 Z" id="Path" fill-rule="nonzero"></path>
            <path d="M113.088,188.48 L98.8,188.48 L98.8,79.952 L112.784,79.952 L112.784,91.2 L113.24,91.2 C115.570667,87.3493333 118.990667,84.1826667 123.5,81.7 C128.009333,79.2173333 133.253333,77.976 139.232,77.976 C144.602667,77.976 149.492,78.9386667 153.9,80.864 C158.308,82.7893333 162.108,85.4746667 165.3,88.92 C168.492,92.3653333 170.949333,96.3933333 172.672,101.004 C174.394667,105.614667 175.256,110.554667 175.256,115.824 C175.256,121.093333 174.394667,126.058667 172.672,130.72 C170.949333,135.381333 168.517333,139.434667 165.376,142.88 C162.234667,146.325333 158.434667,149.036 153.976,151.012 C149.517333,152.988 144.501333,153.976 138.928,153.976 C133.76,153.976 128.896,152.861333 124.336,150.632 C119.776,148.402667 116.178667,145.261333 113.544,141.208 L113.088,141.208 L113.088,188.48 Z M160.512,115.824 C160.512,112.48 160.005333,109.237333 158.992,106.096 C157.978667,102.954667 156.458667,100.168 154.432,97.736 C152.405333,95.304 149.897333,93.3786667 146.908,91.96 C143.918667,90.5413333 140.448,89.832 136.496,89.832 C132.848,89.832 129.529333,90.5413333 126.54,91.96 C123.550667,93.3786667 120.992,95.304 118.864,97.736 C116.736,100.168 115.089333,102.954667 113.924,106.096 C112.758667,109.237333 112.176,112.530667 112.176,115.976 C112.176,119.421333 112.758667,122.714667 113.924,125.856 C115.089333,128.997333 116.736,131.758667 118.864,134.14 C120.992,136.521333 123.550667,138.421333 126.54,139.84 C129.529333,141.258667 132.848,141.968 136.496,141.968 C140.448,141.968 143.918667,141.233333 146.908,139.764 C149.897333,138.294667 152.405333,136.344 154.432,133.912 C156.458667,131.48 157.978667,128.693333 158.992,125.552 C160.005333,122.410667 160.512,119.168 160.512,115.824 Z" id="Shape" fill-rule="nonzero"></path>
            <path d="M195.168,95.456 C195.168,93.5306667 195.117333,91.048 195.016,88.008 C194.914667,84.968 194.762667,82.2826667 194.56,79.952 L208.088,79.952 C208.290667,81.776 208.442667,83.8786667 208.544,86.26 C208.645333,88.6413333 208.696,90.592 208.696,92.112 L209.152,92.112 C211.178667,87.856 214.142667,84.436 218.044,81.852 C221.945333,79.268 226.328,77.976 231.192,77.976 C233.421333,77.976 235.296,78.1786667 236.816,78.584 L236.208,91.808 C234.181333,91.3013333 232.002667,91.048 229.672,91.048 C226.226667,91.048 223.237333,91.6813333 220.704,92.948 C218.170667,94.2146667 216.068,95.912 214.396,98.04 C212.724,100.168 211.482667,102.625333 210.672,105.412 C209.861333,108.198667 209.456,111.112 209.456,114.152 L209.456,152 L195.168,152 L195.168,95.456 Z" id="Path" fill-rule="nonzero"></path>
            <path d="M300.2,109.592 C300.098667,106.754667 299.617333,104.094667 298.756,101.612 C297.894667,99.1293333 296.628,96.976 294.956,95.152 C293.284,93.328 291.206667,91.884 288.724,90.82 C286.241333,89.756 283.328,89.224 279.984,89.224 C276.944,89.224 274.081333,89.756 271.396,90.82 C268.710667,91.884 266.38,93.328 264.404,95.152 C262.428,96.976 260.806667,99.1293333 259.54,101.612 C258.273333,104.094667 257.538667,106.754667 257.336,109.592 L300.2,109.592 Z M314.64,115.368 C314.64,116.178667 314.64,116.989333 314.64,117.8 C314.64,118.610667 314.589333,119.421333 314.488,120.232 L257.336,120.232 C257.437333,123.272 258.121333,126.134667 259.388,128.82 C260.654667,131.505333 262.352,133.836 264.48,135.812 C266.608,137.788 269.065333,139.333333 271.852,140.448 C274.638667,141.562667 277.602667,142.12 280.744,142.12 C285.608,142.12 289.813333,141.056 293.36,138.928 C296.906667,136.8 299.693333,134.216 301.72,131.176 L311.752,139.232 C307.901333,144.298667 303.366667,148.022667 298.148,150.404 C292.929333,152.785333 287.128,153.976 280.744,153.976 C275.272,153.976 270.205333,153.064 265.544,151.24 C260.882667,149.416 256.88,146.857333 253.536,143.564 C250.192,140.270667 247.557333,136.293333 245.632,131.632 C243.706667,126.970667 242.744,121.802667 242.744,116.128 C242.744,110.554667 243.681333,105.412 245.556,100.7 C247.430667,95.988 250.04,91.96 253.384,88.616 C256.728,85.272 260.68,82.6626667 265.24,80.788 C269.8,78.9133333 274.714667,77.976 279.984,77.976 C285.253333,77.976 290.041333,78.8373333 294.348,80.56 C298.654667,82.2826667 302.302667,84.7653333 305.292,88.008 C308.281333,91.2506667 310.586667,95.1773333 312.208,99.788 C313.829333,104.398667 314.64,109.592 314.64,115.368 Z" id="Shape" fill-rule="nonzero"></path>
            <path d="M378.48,105.336 C378.48,99.9653333 376.858667,95.988 373.616,93.404 C370.373333,90.82 366.066667,89.528 360.696,89.528 C356.642667,89.528 352.817333,90.3133333 349.22,91.884 C345.622667,93.4546667 342.608,95.456 340.176,97.888 L332.576,88.768 C336.122667,85.424 340.454667,82.7893333 345.572,80.864 C350.689333,78.9386667 356.186667,77.976 362.064,77.976 C367.232,77.976 371.716,78.7106667 375.516,80.18 C379.316,81.6493333 382.432,83.6506667 384.864,86.184 C387.296,88.7173333 389.12,91.7066667 390.336,95.152 C391.552,98.5973333 392.16,102.296 392.16,106.248 L392.16,137.712 C392.16,140.144 392.236,142.702667 392.388,145.388 C392.54,148.073333 392.818667,150.277333 393.224,152 L380.304,152 C379.493333,148.554667 379.088,145.109333 379.088,141.664 L378.632,141.664 C375.997333,145.514667 372.678667,148.504 368.676,150.632 C364.673333,152.76 359.936,153.824 354.464,153.824 C351.626667,153.824 348.662667,153.444 345.572,152.684 C342.481333,151.924 339.669333,150.682667 337.136,148.96 C334.602667,147.237333 332.5,144.957333 330.828,142.12 C329.156,139.282667 328.32,135.786667 328.32,131.632 C328.32,126.16 329.789333,121.828 332.728,118.636 C335.666667,115.444 339.517333,113.012 344.28,111.34 C349.042667,109.668 354.413333,108.578667 360.392,108.072 C366.370667,107.565333 372.4,107.312 378.48,107.312 L378.48,105.336 Z M374.984,117.648 C371.437333,117.648 367.764,117.8 363.964,118.104 C360.164,118.408 356.718667,119.016 353.628,119.928 C350.537333,120.84 347.978667,122.208 345.952,124.032 C343.925333,125.856 342.912,128.288 342.912,131.328 C342.912,133.456 343.342667,135.229333 344.204,136.648 C345.065333,138.066667 346.205333,139.232 347.624,140.144 C349.042667,141.056 350.613333,141.689333 352.336,142.044 C354.058667,142.398667 355.832,142.576 357.656,142.576 C364.344,142.576 369.486667,140.574667 373.084,136.572 C376.681333,132.569333 378.48,127.528 378.48,121.448 L378.48,117.648 L374.984,117.648 Z" id="Shape" fill-rule="nonzero"></path>
            <path d="M473.48,140.6 C470.744,144.957333 467.02,148.276 462.308,150.556 C457.596,152.836 452.656,153.976 447.488,153.976 C441.914667,153.976 436.898667,152.988 432.44,151.012 C427.981333,149.036 424.181333,146.325333 421.04,142.88 C417.898667,139.434667 415.466667,135.381333 413.744,130.72 C412.021333,126.058667 411.16,121.093333 411.16,115.824 C411.16,110.554667 412.021333,105.614667 413.744,101.004 C415.466667,96.3933333 417.924,92.3653333 421.116,88.92 C424.308,85.4746667 428.133333,82.7893333 432.592,80.864 C437.050667,78.9386667 441.965333,77.976 447.336,77.976 C453.213333,77.976 458.330667,79.2173333 462.688,81.7 C467.045333,84.1826667 470.490667,87.1973333 473.024,90.744 L473.328,90.744 L473.328,37.088 L487.616,37.088 L487.616,152 L473.784,152 L473.784,140.6 L473.48,140.6 Z M426.056,115.824 C426.056,119.168 426.562667,122.410667 427.576,125.552 C428.589333,128.693333 430.109333,131.48 432.136,133.912 C434.162667,136.344 436.645333,138.294667 439.584,139.764 C442.522667,141.233333 445.968,141.968 449.92,141.968 C453.568,141.968 456.886667,141.258667 459.876,139.84 C462.865333,138.421333 465.424,136.521333 467.552,134.14 C469.68,131.758667 471.326667,128.997333 472.492,125.856 C473.657333,122.714667 474.24,119.421333 474.24,115.976 C474.24,112.530667 473.657333,109.237333 472.492,106.096 C471.326667,102.954667 469.68,100.168 467.552,97.736 C465.424,95.304 462.865333,93.3786667 459.876,91.96 C456.886667,90.5413333 453.568,89.832 449.92,89.832 C445.968,89.832 442.522667,90.5413333 439.584,91.96 C436.645333,93.3786667 434.162667,95.304 432.136,97.736 C430.109333,100.168 428.589333,102.954667 427.576,106.096 C426.562667,109.237333 426.056,112.48 426.056,115.824 Z" id="Shape" fill-rule="nonzero"></path>
        </g>
        <g id="API" stroke-width="1" transform="translate(689.784, -7)" fill="#9334E9">
            <path d="M46.816,44.384 L63.384,44.384 L109.744,152 L87.856,152 L77.824,127.376 L31.16,127.376 L21.432,152 L0,152 L46.816,44.384 Z M71.136,110.96 L54.568,67.184 L37.696,110.96 L71.136,110.96 Z" id="Shape" fill-rule="nonzero"></path>
            <path d="M120.384,44.384 L155.496,44.384 C161.677333,44.384 167.250667,44.9413333 172.216,46.056 C177.181333,47.1706667 181.437333,48.9946667 184.984,51.528 C188.530667,54.0613333 191.266667,57.304 193.192,61.256 C195.117333,65.208 196.08,69.9706667 196.08,75.544 C196.08,81.5226667 194.965333,86.5386667 192.736,90.592 C190.506667,94.6453333 187.492,97.9133333 183.692,100.396 C179.892,102.878667 175.458667,104.677333 170.392,105.792 C165.325333,106.906667 159.954667,107.464 154.28,107.464 L139.536,107.464 L139.536,152 L120.384,152 L120.384,44.384 Z M152.912,91.352 C156.053333,91.352 159.042667,91.124 161.88,90.668 C164.717333,90.212 167.250667,89.4013333 169.48,88.236 C171.709333,87.0706667 173.482667,85.4746667 174.8,83.448 C176.117333,81.4213333 176.776,78.7866667 176.776,75.544 C176.776,72.4026667 176.117333,69.844 174.8,67.868 C173.482667,65.892 171.734667,64.3466667 169.556,63.232 C167.377333,62.1173333 164.894667,61.3826667 162.108,61.028 C159.321333,60.6733333 156.458667,60.496 153.52,60.496 L139.536,60.496 L139.536,91.352 L152.912,91.352 Z" id="Shape" fill-rule="nonzero"></path>
            <polygon id="Path" fill-rule="nonzero" points="213.104 44.384 232.256 44.384 232.256 152 213.104 152"></polygon>
        </g>
        <path d="M113,140.358328 C116.956327,143.570175 121.999829,145.494913 127.492878,145.494913 C132.539522,145.494913 137.206718,143.870299 141,141.115536 L140.999195,142.000706 C140.999195,149.732303 134.731498,156 126.999902,156 C119.268305,156 113.000608,149.732303 113.000608,142.000706 Z M126.999902,34 C134.731498,34 140.999195,40.2676973 140.999195,47.9992937 L141,85.8432874 C137.206718,83.0885242 132.539522,81.46391 127.492878,81.46391 C121.999829,81.46391 116.956327,83.3886481 113,86.6004958 L113.000608,47.9992937 C113.000608,40.2676973 119.268305,34 126.999902,34 Z" id="Combined-Shape" fill="#9334E9"></path>
        <rect id="Rectangle" fill="#9334E9" x="23" y="32" width="118" height="28" rx="14"></rect>
        <path d="M-5,76 L78,76 C85.7319865,76 92,82.2680135 92,90 C92,97.7319865 85.7319865,104 78,104 L-5,104 C-12.7319865,104 -19,97.7319865 -19,90 C-19,82.2680135 -12.7319865,76 -5,76 Z" id="Rectangle-Copy-3" fill="#9334E9" transform="translate(36.5, 90) rotate(-90) translate(-36.5, -90)"></path>
        <path d="M77.9996714,120.000376 C74.9994557,123.886718 73.2146549,128.759307 73.2146549,134.048759 C73.2146549,139.294233 74.9699,144.129747 77.9250888,148 L36.9991212,147.999292 C29.2676201,147.999292 23,141.731672 23,134.000171 C23,126.26867 29.2676201,120.00105 36.9991212,120.00105 Z" id="Combined-Shape" fill="#9334E9"></path>
        <rect id="Rectangle-Copy-12" fill="#9334E9" transform="translate(124.5, 134) rotate(-180) translate(-124.5, -134)" x="84" y="120" width="81" height="28" rx="14"></rect>
        <path d="M101,119 L154,119 C161.731986,119 168,125.268014 168,133 C168,140.731986 161.731986,147 154,147 L101,147 C93.2680135,147 87,140.731986 87,133 C87,125.268014 93.2680135,119 101,119 Z" id="Rectangle-Copy-11" fill="#9334E9" transform="translate(127.5, 133) rotate(-90) translate(-127.5, -133)"></path>
    </g>
</svg>