<?xml version="1.0" encoding="UTF-8"?>
<svg width="703px" height="720px" viewBox="0 0 703 720" version="1.1" xmlns="http://www.w3.org/2000/svg" xmlns:xlink="http://www.w3.org/1999/xlink">
    <title>sparkles-svgrepo-com copy 4</title>
    <g id="Page-1" stroke="none" stroke-width="1" fill="none" fill-rule="evenodd">
        <g id="sparkles-svgrepo-com-copy-4" transform="translate(0.29, 0.1357)" fill="#4F2D7F" fill-rule="nonzero">
            <path d="M290.96,162.724286 C294.977143,162.724286 296.987143,160.38 297.991429,156.697143 C308.37,100.781429 307.701429,99.4428571 365.96,88.3928571 C369.977143,87.7242857 372.321429,85.38 372.321429,81.3614286 C372.321429,77.3442857 369.977143,75 365.96,74.33 C308.035714,62.6128571 309.71,61.2728571 297.991429,6.02714286 C296.987143,2.34428571 294.977143,0 290.96,0 C286.941429,0 284.932857,2.34428571 283.928571,6.02714286 C272.21,61.2728571 274.218571,62.6128571 215.96,74.33 C212.277143,75 209.598571,77.3442857 209.598571,81.3614286 C209.598571,85.38 212.277143,87.7242857 215.96,88.3928571 C274.218571,100.112857 273.548571,100.781429 283.928571,156.697143 C284.932857,160.38 286.941429,162.724286 290.96,162.724286 Z M128.907143,393.081429 C135.268571,393.081429 139.621429,389.062857 140.29,383.037143 C152.344286,293.638571 155.357143,293.638571 247.768571,275.894286 C253.795714,274.888571 258.147143,270.871429 258.147143,264.51 C258.147143,258.482857 253.795714,254.13 247.768571,253.125714 C155.357143,240.402857 152.008571,237.388571 140.29,146.317143 C139.621429,140.291429 135.268571,135.938571 128.907143,135.938571 C122.88,135.938571 118.527143,140.291429 117.857143,146.652857 C106.808571,236.384286 102.12,236.05 10.38,253.125714 C4.35285714,254.465714 0,258.482857 0,264.51 C0,271.205714 4.35285714,274.888571 11.7185714,275.894286 C102.79,290.625714 106.808571,292.97 117.857143,382.367143 C118.527143,389.062857 122.88,393.081429 128.907143,393.081429 Z M438.915714,719.728571 C447.621429,719.728571 453.982857,713.367143 455.655714,704.327143 C479.428571,520.844286 505.21,493.054286 686.682857,472.964286 C696.058571,471.96 702.42,464.928571 702.42,456.224286 C702.42,447.518571 696.058571,440.821429 686.682857,439.482857 C505.21,419.392857 479.428571,391.602857 455.655714,208.121429 C453.982857,199.081429 447.621429,193.054286 438.915714,193.054286 C430.21,193.054286 423.848571,199.081429 422.51,208.121429 C398.737143,391.602857 372.621429,419.392857 191.481429,439.482857 C181.772857,440.821429 175.411429,447.518571 175.411429,456.224286 C175.411429,464.928571 181.772857,471.96 191.481429,472.964286 C372.285714,496.737143 397.397143,521.18 422.51,704.327143 C423.848571,713.367143 430.21,719.728571 438.915714,719.728571 Z" id="Shape-Copy-3"></path>
        </g>
    </g>
</svg>